<svg width="74" height="24" viewBox="0 0 74 24" fill="none" xmlns="http://www.w3.org/2000/svg">
<path d="M8.57019 20.7169C8.43416 19.516 8.35643 18.4506 8.337 17.5209C8.29813 16.0875 8.2787 15.2934 8.2787 15.1384C8.2787 14.6155 8.25927 14.2184 8.2204 13.9472C8.20097 13.6567 8.15239 13.3758 8.07466 13.1046C8.01636 12.8335 7.90948 12.6494 7.75402 12.5526C7.61799 12.4558 7.43338 12.4267 7.20019 12.4654C5.76217 12.4654 5.3638 15.0513 6.00508 20.2229C6.16054 21.4045 5.77188 22.2955 4.83911 22.8959C3.92578 23.4964 2.95414 23.6029 1.92421 23.2155C0.894278 22.8281 0.33073 22.034 0.233566 20.8331C-0.252251 16.3975 0.0198063 12.9981 1.04974 10.635C1.98251 8.62058 3.49826 7.35188 5.59699 6.8289C7.71515 6.30592 9.60012 6.69332 11.2519 7.99108C12.8454 6.75142 14.6138 6.30593 16.557 6.65458C18.4809 7.00323 19.9675 7.88454 21.0168 9.29852C21.8719 10.4801 22.4451 12.1555 22.7366 14.3249C23.0281 16.5137 23.0281 18.4797 22.7366 20.2229C22.5229 21.7531 21.8524 22.7313 20.7253 23.1574C19.7537 23.5448 18.8598 23.4286 18.0436 22.8088C17.2275 22.1889 16.8582 21.3076 16.936 20.1648L17.0526 17.9276C17.0914 16.2231 17.0526 15.0416 16.936 14.383C16.7999 13.6663 16.5862 13.1434 16.2947 12.8141C16.0226 12.4654 15.6243 12.3202 15.0996 12.3783C14.4194 12.4751 14.0599 13.4049 14.0211 15.1675C13.9822 15.9616 13.9822 16.7267 14.0211 17.4628C14.0599 18.47 14.0988 19.206 14.1377 19.6709C14.196 20.4069 14.2251 20.8428 14.2251 20.9784C14.2251 21.5788 14.0405 22.0824 13.6713 22.4892C13.3215 22.8766 12.8745 23.109 12.3304 23.1865C11.8057 23.264 11.2713 23.2446 10.7272 23.1284C10.2025 23.0122 9.72644 22.741 9.29892 22.3148C8.89083 21.8694 8.64792 21.3367 8.57019 20.7169Z" fill="#1D3630"/>
<path d="M31.3433 24C28.7977 24 26.8447 22.8959 25.4844 20.6878C24.299 18.7702 23.8423 16.5427 24.1144 14.0053C24.367 11.4679 25.3386 9.51158 27.0293 8.13635C28.3896 7.03228 30.0316 6.53836 31.9555 6.65458C33.4129 6.75142 34.6469 7.24535 35.6574 8.13635C37.6395 9.80213 38.582 12.2717 38.4848 15.5452C38.4654 16.9979 38.1836 18.3635 37.6395 19.6419C37.0954 20.9202 36.2598 21.9662 35.1327 22.7797C34.025 23.5932 32.7619 24 31.3433 24ZM31.5182 12.1458C31.013 12.1458 30.566 12.3686 30.1774 12.8141C29.8081 13.2402 29.5652 13.7632 29.4486 14.383C29.3515 15.0028 29.3223 15.6324 29.3612 16.2716C29.4195 16.8914 29.6138 17.424 29.9442 17.8695C30.294 18.2957 30.7409 18.5087 31.285 18.5087C32.004 18.5087 32.519 17.9858 32.8299 16.9398C33.1409 15.8745 33.17 14.8092 32.9174 13.7438C32.6648 12.6785 32.1984 12.1458 31.5182 12.1458Z" fill="#1D3630"/>
<path d="M46.4302 24C43.8846 24 41.9316 22.8959 40.5713 20.6878C39.3859 18.7702 38.9292 16.5427 39.2013 14.0053C39.4539 11.4679 40.4255 9.51158 42.1162 8.13635C43.4765 7.03228 45.1185 6.53836 47.0424 6.65458C48.4998 6.75142 49.7338 7.24535 50.7443 8.13635C52.7264 9.80213 53.6689 12.2717 53.5718 15.5452C53.5523 16.9979 53.2705 18.3635 52.7264 19.6419C52.1823 20.9202 51.3467 21.9662 50.2196 22.7797C49.1119 23.5932 47.8488 24 46.4302 24ZM46.6051 12.1458C46.0999 12.1458 45.6529 12.3686 45.2643 12.8141C44.8951 13.2402 44.6521 13.7632 44.5355 14.383C44.4384 15.0028 44.4092 15.6324 44.4481 16.2716C44.5064 16.8914 44.7007 17.424 45.0311 17.8695C45.3809 18.2957 45.8278 18.5087 46.3719 18.5087C47.091 18.5087 47.6059 17.9858 47.9168 16.9398C48.2278 15.8745 48.2569 14.8092 48.0043 13.7438C47.7517 12.6785 47.2853 12.1458 46.6051 12.1458Z" fill="#1D3630"/>
<path d="M64.1326 5.92822C63.569 5.77326 63.1609 5.82169 62.9083 6.07349C62.6557 6.30592 62.4128 6.83859 62.1796 7.67148L63.8119 7.72959C65.1528 7.72959 66.037 8.28162 66.4645 9.38568C66.8532 10.3735 66.7754 11.313 66.2313 12.2039C65.6289 13.1918 64.6961 13.6373 63.433 13.5404L61.8881 13.4533C61.9464 15.0997 62.2185 17.3078 62.7043 20.0777C62.8209 20.8137 62.7237 21.4626 62.4128 22.0243C62.1019 22.5667 61.6744 22.9444 61.1302 23.1574C60.5861 23.3511 60.0226 23.4286 59.4396 23.3899C58.8566 23.3705 58.3222 23.1477 57.8364 22.7216C57.37 22.2955 57.0785 21.7338 56.9619 21.0365C56.4178 18.0729 56.1166 15.5065 56.0583 13.3371C55.145 13.2983 54.4357 12.969 53.9304 12.3492C53.4446 11.7294 53.2114 11.0611 53.2308 10.3445C53.2697 9.60843 53.5515 8.95955 54.0762 8.39784C54.6203 7.79738 55.3587 7.50684 56.2915 7.52621C56.6996 4.77573 57.7295 2.73224 59.3813 1.39575C61.0136 0.0398783 63.0638 -0.328143 65.5317 0.291683C66.2507 0.446639 66.8046 0.775921 67.1932 1.27953C67.5819 1.78314 67.7568 2.32548 67.7179 2.90657C67.6985 3.48766 67.5625 4.04937 67.3098 4.59172C67.0572 5.1147 66.6394 5.51177 66.0564 5.78295C65.4734 6.05412 64.8322 6.10254 64.1326 5.92822Z" fill="#1D3630"/>
<path d="M71.0851 7.03228H71.0559C70.2592 7.03228 69.5693 6.75142 68.9864 6.18971C68.4228 5.60862 68.141 4.91132 68.141 4.0978C68.141 3.30365 68.4228 2.62571 68.9864 2.064C69.5693 1.50228 70.2592 1.22142 71.0559 1.22142H71.0851C71.8818 1.22142 72.562 1.50228 73.1255 2.064C73.7085 2.62571 74 3.30365 74 4.0978C74 4.91132 73.7085 5.60862 73.1255 6.18971C72.562 6.75142 71.8818 7.03228 71.0851 7.03228ZM73.7668 10.6641L73.6794 15.8357C73.6794 16.4362 73.6696 17.1141 73.6502 17.8695C73.6502 18.625 73.6405 19.2545 73.6211 19.7581C73.6211 20.2617 73.6211 20.6781 73.6211 21.0074C73.6016 21.8984 73.281 22.5957 72.6591 23.0993C72.0567 23.6029 71.3863 23.8547 70.6479 23.8547C69.9288 23.8547 69.2681 23.5932 68.6657 23.0703C68.0633 22.5279 67.7718 21.8016 67.7912 20.8912C67.7912 20.5619 67.7912 20.1455 67.7912 19.6419C67.8107 19.1382 67.8204 18.5184 67.8204 17.7824C67.8398 17.027 67.8495 16.349 67.8495 15.7486L67.937 10.5769C67.9564 9.72465 68.2576 9.03703 68.8406 8.51405C69.443 7.9717 70.1232 7.70053 70.881 7.70053C71.6195 7.70053 72.2899 7.9717 72.8923 8.51405C73.5142 9.03703 73.8057 9.7537 73.7668 10.6641Z" fill="#1D3630"/>
</svg>
