<svg width="40" height="40" viewBox="0 0 40 40" fill="none" xmlns="http://www.w3.org/2000/svg">
<circle cx="20" cy="20" r="20" fill="#1D3630"/>
<path d="M9.89042 10.9081L9.21883 11.5865C9.09561 11.711 9.08978 11.9096 9.20548 12.0411C9.5822 12.439 10.6867 13.3385 11.4144 13.8315C14.3339 15.8035 17.9898 16.7722 21.4059 16.4868C22.7587 16.3744 24.197 16.0889 25.3101 15.7084C26.2946 15.3797 27.9899 14.5667 28.8289 14.0218C29.5652 13.5374 30.7895 12.5687 31.2091 12.1276C31.3718 11.9535 31.3686 11.6821 31.2017 11.5119L30.6097 10.9081C30.4866 10.7836 30.3676 10.665 30.2577 10.557C29.8716 10.1778 29.3916 10.154 29.0001 10.5275C27.8358 11.5913 26.0635 12.6292 24.4967 13.1569C20.858 14.385 16.8254 13.9699 13.572 12.0238C12.7672 11.5481 11.5514 10.6313 11.1832 10.2248C11.0305 10.0705 10.7667 10.1073 10.6019 10.2485C10.421 10.4035 10.2137 10.5814 9.89042 10.9081Z" fill="#C8F169"/>
<path d="M10.6393 16.8518V17.6016C10.6393 17.9034 10.884 18.1481 11.1857 18.1481C13.6146 18.4351 15.6575 20.3006 16.1877 22.6668C16.3673 23.4236 16.3673 24.6762 16.1877 25.3634C16.0081 26.0855 15.4522 27.2076 15.0417 27.6774C14.8484 27.9035 14.8609 28.2401 15.0704 28.4512L15.6233 29.0083L16.0849 29.4778C16.3499 29.7474 16.773 29.7809 17.0772 29.5564C18.0778 28.7995 19.0784 28.4516 20.2501 28.4516C21.4303 28.4516 22.4566 28.8082 23.423 29.5564C23.7495 29.8091 24.2136 29.7766 24.5017 29.4809L24.9111 29.0605L25.3724 28.587C25.6311 28.3214 25.6497 27.9041 25.4157 27.6165C24.9539 27.0336 24.5092 26.1203 24.3125 25.3634C24.15 24.711 24.15 23.354 24.3125 22.6494C24.8598 20.2919 26.8289 18.4438 29.3091 18.1481C29.5606 18.1481 29.7645 17.9442 29.7645 17.6927V16.8518C29.7645 16.7127 29.7645 16.5874 29.7645 16.4747C29.7645 15.9717 29.3479 15.5692 28.8452 15.5858C25.4756 16.0033 22.6704 18.4825 21.7724 21.849C21.6099 22.458 21.5757 22.7972 21.5757 23.9281C21.5757 24.6675 21.6014 25.3895 21.6356 25.5374C21.6662 25.671 21.5648 25.7984 21.4277 25.7984H20.2501H19.0793C18.9415 25.7984 18.838 25.6726 18.8646 25.5374C18.8988 25.3895 18.9245 24.6675 18.9245 23.9281C18.9245 22.7885 18.8903 22.4667 18.7278 21.849C18.3344 20.3876 17.6844 19.222 16.6667 18.152C15.6062 17.0385 14.52 16.3513 13.1089 15.8989C12.5444 15.725 11.3679 15.5554 11.1857 15.5554C11.1857 15.5554 11.1857 15.5554 11.1857 15.5554C11.1857 15.5554 10.6393 15.5554 10.6393 16.8518Z" fill="#C8F169"/>
</svg>
