<svg width="24" height="24" viewBox="0 0 24 24" fill="none" xmlns="http://www.w3.org/2000/svg">
<ellipse cx="8.4" cy="15.2" rx="4.4" ry="3.2" fill="#1D3630"/>
<ellipse cx="8.4" cy="12.8001" rx="4.4" ry="3.2" fill="#EEF2E3"/>
<ellipse cx="8.4" cy="11.2" rx="4.4" ry="3.2" fill="#1D3630"/>
<ellipse cx="8.4" cy="8.8001" rx="4.4" ry="3.2" fill="#EEF2E3"/>
<ellipse cx="8.4" cy="7.2" rx="4.4" ry="3.2" fill="#1D3630"/>
<path d="M15.6 20.5001C16.9092 20.5001 18.1148 20.1149 19.0054 19.4672C19.8954 18.8199 20.5 17.8831 20.5 16.8001C20.5 15.7171 19.8954 14.7803 19.0054 14.133C18.1148 13.4853 16.9092 13.1001 15.6 13.1001C14.2908 13.1001 13.0852 13.4853 12.1946 14.133C11.3046 14.7803 10.7 15.7171 10.7 16.8001C10.7 17.8831 11.3046 18.8199 12.1946 19.4672C13.0852 20.1149 14.2908 20.5001 15.6 20.5001Z" fill="#1D3630" stroke="#EEF2E3"/>
<path d="M19.5 14.4C19.5 15.0842 19.1196 15.7475 18.4172 16.2583C17.7152 16.7688 16.7208 17.1 15.6 17.1C14.4792 17.1 13.4848 16.7688 12.7828 16.2583C12.0804 15.7475 11.7 15.0842 11.7 14.4C11.7 13.7157 12.0804 13.0524 12.7828 12.5416C13.4848 12.0311 14.4792 11.7 15.6 11.7C16.7208 11.7 17.7152 12.0311 18.4172 12.5416C19.1196 13.0524 19.5 13.7157 19.5 14.4Z" fill="#EEF2E3" stroke="#EEF2E3"/>
<path d="M15.6 16.5001C16.9092 16.5001 18.1148 16.1149 19.0054 15.4672C19.8954 14.8199 20.5 13.8831 20.5 12.8001C20.5 11.7171 19.8954 10.7803 19.0054 10.133C18.1148 9.48532 16.9092 9.1001 15.6 9.1001C14.2908 9.1001 13.0852 9.48532 12.1946 10.133C11.3046 10.7803 10.7 11.7171 10.7 12.8001C10.7 13.8831 11.3046 14.8199 12.1946 15.4672C13.0852 16.1149 14.2908 16.5001 15.6 16.5001Z" fill="#1D3630" stroke="#EEF2E3"/>
</svg>
