<svg width="24" height="24" viewBox="0 0 24 24" fill="none" xmlns="http://www.w3.org/2000/svg">
<path fill-rule="evenodd" clip-rule="evenodd" d="M12.091 1.52344C10.6598 1.52344 9.12141 3.10486 8.729 4.42554C7.17289 5.13375 6.09103 6.70225 6.09103 8.52344L5.61972 13.2366C5.60098 13.424 5.52968 13.6023 5.41403 13.751L3.34632 16.4095C2.83543 17.0664 3.30352 18.0234 4.13567 18.0234H19.8642C20.727 18.0234 21.1848 17.004 20.6116 16.3591L18.3064 13.7657C18.1664 13.6082 18.0797 13.4105 18.0588 13.2009L17.591 8.52344C17.591 6.74906 16.5641 5.21454 15.0721 4.48184C14.7863 3.15026 13.5427 1.52344 12.091 1.52344ZM12.1338 22.4768C13.7907 22.4768 15.1338 21.1337 15.1338 19.4768C15.1338 19.5051 14.6444 19.4992 13.892 19.49C13.3979 19.484 12.7905 19.4766 12.1338 19.4766C10.477 19.4766 9.13382 19.4768 9.13382 19.4768C9.13382 21.1337 10.477 22.4768 12.1338 22.4768Z" fill="#1D3630"/>
</svg>
