<svg width="19" height="16" viewBox="0 0 19 16" fill="none" xmlns="http://www.w3.org/2000/svg">
<path fill-rule="evenodd" clip-rule="evenodd" d="M7.83357 5.27916V3.53966C7.10294 3.55066 6.43029 3.61037 6.08315 3.73302C3.57128 4.62055 2.16667 6.32066 2.16667 8.0009C2.16667 9.42597 3.16139 10.8523 5.0189 11.8108L4.10178 13.5881C1.84257 12.4223 0.166672 10.4305 0.166672 8.0009C0.166672 5.12619 2.49109 2.88104 5.41686 1.84727C6.09759 1.60675 7.07423 1.54891 7.83357 1.53936V0.578447C7.83357 0.183902 8.26915 -0.0552043 8.60201 0.156617L11.9309 2.27503C12.1704 2.42739 12.1907 2.76932 11.9711 2.94903L8.65019 5.66614C8.32372 5.93324 7.83357 5.70097 7.83357 5.27916ZM16.8333 8.0009C16.8333 6.47846 15.6914 4.94829 13.5906 4.00267L14.4115 2.1789C16.9212 3.30854 18.8333 5.40119 18.8333 8.0009C18.8333 10.7522 16.6986 12.9305 13.9611 14.0131C12.9872 14.3983 11.9994 14.4175 11.1667 14.4175H11.1666L10.7502 14.4175V15.4216C10.7502 15.8161 10.3147 16.0552 9.9818 15.8434L6.65287 13.725C6.41344 13.5726 6.39307 13.2307 6.61272 13.051L9.93362 10.3339C10.2601 10.0668 10.7502 10.2991 10.7502 10.7209V12.4175L11.1667 12.4175H11.1667C12.0006 12.4175 12.6415 12.3843 13.2255 12.1533C15.5505 11.2338 16.8333 9.61023 16.8333 8.0009Z" fill="#1D3630"/>
</svg>
