<svg width="18" height="20" viewBox="0 0 18 20" fill="none" xmlns="http://www.w3.org/2000/svg">
<path fill-rule="evenodd" clip-rule="evenodd" d="M0.577204 13.8945C0.358236 14.0697 0.230769 14.3349 0.230769 14.6153C0.230769 14.8957 0.358236 15.1609 0.577204 15.3361L5.19259 19.0284C5.59068 19.3469 6.17156 19.2823 6.49003 18.8842C6.8085 18.4862 6.74396 17.9053 6.34587 17.5868L3.78534 15.5384L12.2308 15.5384C12.7406 15.5384 13.1538 15.1251 13.1538 14.6153C13.1538 14.1055 12.7406 13.6922 12.2308 13.6922L3.78534 13.6922L6.34587 11.6438C6.74396 11.3253 6.8085 10.7444 6.49003 10.3463C6.17156 9.94826 5.59068 9.88371 5.19259 10.2022L0.577204 13.8945ZM17.4228 6.10533C17.6418 5.93015 17.7692 5.66494 17.7692 5.38452C17.7692 5.10411 17.6418 4.8389 17.4228 4.66372L12.8074 0.971414C12.4093 0.652944 11.8284 0.717487 11.51 1.11558C11.1915 1.51366 11.256 2.09455 11.6541 2.41302L14.2147 4.46145L5.76923 4.46145C5.25943 4.46145 4.84615 4.87472 4.84615 5.38452C4.84615 5.89432 5.25943 6.3076 5.76923 6.3076L14.2147 6.3076L11.6541 8.35603C11.256 8.6745 11.1915 9.25538 11.51 9.65347C11.8284 10.0516 12.4093 10.1161 12.8074 9.79763L17.4228 6.10533Z" fill="#1D3630"/>
</svg>
