<svg width="40" height="40" viewBox="0 0 40 40" fill="none" xmlns="http://www.w3.org/2000/svg">
<rect width="40" height="40" rx="20" fill="#1D3630"/>
<path d="M26.7171 26.3599C25.7755 26.3599 24.8899 25.9932 24.2241 25.3277L20.6243 21.728C20.3717 21.4746 19.9311 21.4754 19.6785 21.728L16.0656 25.3409C15.3997 26.0063 14.5141 26.373 13.5724 26.373H12.8631L17.4222 30.9322C18.8461 32.3559 21.1546 32.3559 22.5785 30.9322L27.1508 26.3599H26.7171Z" fill="white"/>
<path d="M13.5716 13.6267C14.5133 13.6267 15.3988 13.9935 16.0646 14.659L19.6775 18.2725C19.9377 18.5327 20.3626 18.5338 20.6235 18.2722L24.2232 14.6721C24.8891 14.0066 25.7746 13.6399 26.7163 13.6399H27.1499L22.5777 9.06775C21.1538 7.64385 18.8452 7.64385 17.4213 9.06775L12.8624 13.6267H13.5716Z" fill="white"/>
<path d="M30.9321 17.4219L28.1691 14.6588C28.1083 14.6832 28.0424 14.6985 27.9729 14.6985H26.7168C26.0672 14.6985 25.4315 14.9618 24.9726 15.421L21.3728 19.0208C21.0361 19.3577 20.5935 19.5263 20.1512 19.5263C19.7086 19.5263 19.2663 19.3577 18.9295 19.0212L15.3162 15.4079C14.8572 14.9487 14.2216 14.6854 13.5721 14.6854H12.0274C11.9616 14.6854 11.9 14.6698 11.8418 14.6479L9.06786 17.4219C7.64397 18.8456 7.64397 21.1542 9.06786 22.5782L11.8417 25.3521C11.8998 25.3302 11.9616 25.3146 12.0274 25.3146H13.5721C14.2216 25.3146 14.8572 25.0512 15.3162 24.592L18.9291 20.9791C19.5822 20.3267 20.7205 20.3263 21.3728 20.9794L24.9726 24.5788C25.4315 25.0381 26.0672 25.3015 26.7168 25.3015H27.9729C28.0426 25.3015 28.1083 25.3166 28.1692 25.341L30.9321 22.5782C32.356 21.1542 32.356 18.8456 30.9321 17.4219Z" fill="white"/>
</svg>
