<svg width="40" height="40" viewBox="0 0 40 40" fill="none" xmlns="http://www.w3.org/2000/svg">
<circle cx="20" cy="20" r="20" fill="#09090B"/>
<g clip-path="url(#clip0_1284_2819)">
<path d="M13.316 24.2118C13.4392 24.0886 13.6086 24.0167 13.7883 24.0167H30.0808C30.3786 24.0167 30.5274 24.376 30.317 24.5865L27.0985 27.805C26.9753 27.9282 26.8059 28 26.6262 28H10.3337C10.0359 28 9.88707 27.6407 10.0975 27.4303L13.316 24.2118Z" fill="url(#paint0_linear_1284_2819)"/>
<path d="M13.316 12.1951C13.4443 12.0719 13.6137 12 13.7883 12H30.0808C30.3786 12 30.5274 12.3593 30.317 12.5698L27.0985 15.7883C26.9753 15.9115 26.8059 15.9833 26.6262 15.9833H10.3337C10.0359 15.9833 9.88707 15.624 10.0975 15.4135L13.316 12.1951Z" fill="url(#paint1_linear_1284_2819)"/>
<path d="M27.0985 18.1649C26.9753 18.0417 26.8059 17.9698 26.6262 17.9698H10.3337C10.0359 17.9698 9.88707 18.3292 10.0975 18.5396L13.316 21.7581C13.4392 21.8813 13.6086 21.9532 13.7883 21.9532H30.0808C30.3786 21.9532 30.5274 21.5938 30.317 21.3834L27.0985 18.1649Z" fill="url(#paint2_linear_1284_2819)"/>
</g>
<defs>
<linearGradient id="paint0_linear_1284_2819" x1="28.5244" y1="10.0774" x2="17.2487" y2="31.675" gradientUnits="userSpaceOnUse">
<stop stop-color="#00FFA3"/>
<stop offset="1" stop-color="#DC1FFF"/>
</linearGradient>
<linearGradient id="paint1_linear_1284_2819" x1="23.594" y1="7.5033" x2="12.3183" y2="29.1009" gradientUnits="userSpaceOnUse">
<stop stop-color="#00FFA3"/>
<stop offset="1" stop-color="#DC1FFF"/>
</linearGradient>
<linearGradient id="paint2_linear_1284_2819" x1="26.0435" y1="8.78214" x2="14.7678" y2="30.3798" gradientUnits="userSpaceOnUse">
<stop stop-color="#00FFA3"/>
<stop offset="1" stop-color="#DC1FFF"/>
</linearGradient>
<clipPath id="clip0_1284_2819">
<rect width="20.4145" height="16" fill="white" transform="translate(10 12)"/>
</clipPath>
</defs>
</svg>
