<svg width="40" height="40" viewBox="0 0 40 40" fill="none" xmlns="http://www.w3.org/2000/svg">
<circle cx="20" cy="20" r="20" fill="#1D3630"/>
<path d="M19.4465 23.7445C18.6237 25.0274 17.2295 27.4248 17.2295 28.4343C17.2295 29.8434 18.4637 31 20.0178 31C21.5491 31 22.8061 29.8644 22.8061 28.4343C22.8061 27.4248 21.3891 25.0484 20.5892 23.7445C20.3149 23.3449 19.6979 23.3449 19.4465 23.7445Z" fill="#C8F169"/>
<path d="M29.9597 12.1146C30.0511 11.8623 29.9825 11.5678 29.7997 11.3575C29.6169 11.1472 29.3426 11 29.0455 11H10.9445C10.6473 11 10.3731 11.1262 10.1902 11.3575C10.0074 11.5889 9.9617 11.8623 10.0303 12.1146C10.5102 13.6288 11.4016 14.9748 12.5672 16.0683L10.853 18.1083C10.3959 18.6972 10.5102 19.5173 11.1273 19.959C11.3787 20.1483 11.6987 20.2324 11.9958 20.2324C12.43 20.2324 12.8643 20.0641 13.1385 19.7066L14.8526 17.6667C15.3326 17.919 15.8354 18.1293 16.3382 18.3186L15.744 20.8212C15.5611 21.5363 16.0639 22.2513 16.841 22.3985C16.9553 22.4196 17.0467 22.4406 17.161 22.4406C17.8238 22.4406 18.418 22.02 18.578 21.4101L19.1722 18.9285C19.4465 18.9495 19.7207 18.9706 19.995 18.9706C20.2692 18.9706 20.5435 18.9495 20.8177 18.9285L21.4348 21.4101C21.5948 22.02 22.189 22.4406 22.8518 22.4406C22.9661 22.4406 23.0575 22.4196 23.1718 22.3985C23.9489 22.2303 24.4288 21.5363 24.2688 20.8212L23.6517 18.3186C24.1774 18.1293 24.6574 17.919 25.1373 17.6667L26.8514 19.7066C27.1257 20.0431 27.5599 20.2324 27.9942 20.2324C28.2913 20.2324 28.6112 20.1483 28.8627 19.959C29.5026 19.5173 29.6169 18.6761 29.1369 18.1083L27.4228 16.0683C28.5884 14.9748 29.4569 13.6288 29.9597 12.1146Z" fill="#C8F169"/>
</svg>
