<svg width="58" height="58" viewBox="0 0 58 58" fill="none" xmlns="http://www.w3.org/2000/svg">
<circle cx="29" cy="29" r="29" fill="#1D3630"/>
<path d="M14.3414 15.8167L13.3676 16.8004C13.1889 16.9809 13.1805 17.2689 13.3482 17.4596C13.8945 18.0365 15.4959 19.3408 16.5512 20.0557C20.7845 22.9151 26.0855 24.3197 31.0389 23.9059C33.0004 23.7428 35.086 23.329 36.6999 22.7771C38.1275 22.3006 40.5856 21.1217 41.8022 20.3316C42.8699 19.6293 44.6451 18.2246 45.2534 17.585C45.4895 17.3326 45.4848 16.939 45.2428 16.6922L44.3844 15.8167C44.2058 15.6362 44.0333 15.4643 43.8739 15.3077C43.3142 14.7579 42.6182 14.7233 42.0505 15.2649C40.3621 16.8075 37.7923 18.3124 35.5205 19.0774C30.2443 20.8583 24.3971 20.2563 19.6796 17.4345C18.5127 16.7448 16.7498 15.4154 16.216 14.8259C15.9945 14.6022 15.612 14.6555 15.373 14.8604C15.1108 15.085 14.8102 15.3431 14.3414 15.8167Z" fill="#C8F169"/>
<path d="M15.4277 24.435V25.5224C15.4277 25.9599 15.7825 26.3147 16.2201 26.3147C19.7419 26.7309 22.7041 29.4359 23.4729 32.8668C23.7334 33.9642 23.7334 35.7805 23.4729 36.777C23.2125 37.8239 22.4065 39.4511 21.8112 40.1322C21.5309 40.46 21.5491 40.9481 21.8529 41.2543L22.6545 42.0621L23.3238 42.7428C23.7081 43.1338 24.3216 43.1823 24.7626 42.8567C26.2136 41.7593 27.6645 41.2548 29.3634 41.2548C31.0747 41.2548 32.5628 41.7719 33.9641 42.8567C34.4375 43.2232 35.1105 43.1761 35.5282 42.7473L36.1219 42.1377L36.7907 41.4511C37.1658 41.066 37.1928 40.4609 36.8535 40.0439C36.1839 39.1988 35.539 37.8744 35.2538 36.777C35.0182 35.831 35.0182 33.8633 35.2538 32.8416C36.0475 29.4233 38.9026 26.7435 42.4989 26.3147C42.8636 26.3147 43.1592 26.0191 43.1592 25.6544V24.435C43.1592 24.2333 43.1592 24.0517 43.1592 23.8883C43.1592 23.159 42.5552 22.5753 41.8263 22.5994C36.9403 23.2048 32.8728 26.7997 31.5708 31.6811C31.3351 32.5641 31.2855 33.056 31.2855 34.6958C31.2855 35.7679 31.3227 36.8148 31.3723 37.0293C31.4168 37.2229 31.2696 37.4077 31.0709 37.4077H29.3634H27.6657C27.4659 37.4077 27.3159 37.2253 27.3544 37.0293C27.404 36.8148 27.4412 35.7679 27.4412 34.6958C27.4412 33.0434 27.3916 32.5767 27.156 31.6811C26.5856 29.562 25.6431 27.8718 24.1674 26.3204C22.6297 24.7058 21.0548 23.7094 19.0086 23.0535C18.1902 22.8012 16.4842 22.5554 16.2201 22.5554C16.2201 22.5554 16.2201 22.5554 16.2201 22.5554C16.2201 22.5554 15.4277 22.5554 15.4277 24.435Z" fill="#C8F169"/>
</svg>
